<svg width="25" height="26" viewBox="0 0 25 26" fill="none" xmlns="http://www.w3.org/2000/svg">
<path d="M12.5 0.5C5.6 0.5 0 6.1 0 13C0 19.9 5.6 25.5 12.5 25.5C19.4 25.5 25 19.9 25 13C25 6.1 19.4 0.5 12.5 0.5ZM12.5 4.25C14.575 4.25 16.25 5.925 16.25 8C16.25 10.075 14.575 11.75 12.5 11.75C10.425 11.75 8.75 10.075 8.75 8C8.75 5.925 10.425 4.25 12.5 4.25ZM12.5 22C9.375 22 6.6125 20.4 5 17.975C5.0375 15.4875 10 14.125 12.5 14.125C14.9875 14.125 19.9625 15.4875 20 17.975C18.3875 20.4 15.625 22 12.5 22Z" fill="#DEDCDB"/>
</svg>
