<svg width="24" height="26" viewBox="0 0 24 26" fill="none" xmlns="http://www.w3.org/2000/svg">
<path fill-rule="evenodd" clip-rule="evenodd" d="M5 1C5 0.44772 5.44772 0 6 0C6.55228 0 7 0.44772 7 1V3H17V1C17 0.44772 17.4477 0 18 0C18.5523 0 19 0.44772 19 1V3H21C22.6569 3 24 4.34315 24 6V23C24 24.6569 22.6569 26 21 26H3C1.34315 26 0 24.6569 0 23V6C0 4.34315 1.34315 3 3 3H5V1ZM3 5H21C21.5523 5 22 5.44771 22 6V10.25H2V6C2 5.44772 2.44772 5 3 5ZM2 12.25V23C2 23.5523 2.44772 24 3 24H21C21.5523 24 22 23.5523 22 23V12.25H2Z" fill="#9E9E9E"/>
</svg>
