<svg width="17" height="18" viewBox="0 0 17 18" fill="none" xmlns="http://www.w3.org/2000/svg">
    <path
        d="M1 9C1 4.85786 4.35786 1.5 8.5 1.5C12.6421 1.5 16 4.85786 16 9C16 13.1421 12.6421 16.5 8.5 16.5C4.35786 16.5 1 13.1421 1 9Z"
        fill="#F5F5F5" />
    <path d="M6.41666 11.0833L10.5833 6.91666M10.5833 11.0833L6.41666 6.91666" stroke="#9E9E9E" stroke-width="1.25"
        stroke-linecap="round" stroke-linejoin="round" />
    <path
        d="M1 9C1 8.01509 1.19399 7.03982 1.5709 6.12987C1.94781 5.21993 2.50026 4.39314 3.1967 3.6967C3.89314 3.00026 4.71993 2.44781 5.62987 2.0709C6.53982 1.69399 7.51509 1.5 8.5 1.5C9.48491 1.5 10.4602 1.69399 11.3701 2.0709C12.2801 2.44781 13.1069 3.00026 13.8033 3.6967C14.4997 4.39314 15.0522 5.21993 15.4291 6.12987C15.806 7.03982 16 8.01509 16 9C16 10.9891 15.2098 12.8968 13.8033 14.3033C12.3968 15.7098 10.4891 16.5 8.5 16.5C6.51088 16.5 4.60322 15.7098 3.1967 14.3033C1.79018 12.8968 1 10.9891 1 9V9Z"
        stroke="#F5F5F5" stroke-width="1.25" stroke-linecap="round" />
</svg>
