<svg width="16" height="19" viewBox="0 0 16 19" fill="none" xmlns="http://www.w3.org/2000/svg">
<path d="M10.5 0.833313H5.5V2.49998H10.5V0.833313ZM7.16667 11.6666H8.83333V6.66665H7.16667V11.6666ZM13.8583 6.15831L15.0417 4.97498C14.6833 4.54998 14.2917 4.14998 13.8667 3.79998L12.6833 4.98331C11.3917 3.94998 9.76667 3.33331 8 3.33331C3.85833 3.33331 0.5 6.69165 0.5 10.8333C0.5 14.975 3.85 18.3333 8 18.3333C12.15 18.3333 15.5 14.975 15.5 10.8333C15.5 9.06665 14.8833 7.44165 13.8583 6.15831ZM8 16.6666C4.775 16.6666 2.16667 14.0583 2.16667 10.8333C2.16667 7.60831 4.775 4.99998 8 4.99998C11.225 4.99998 13.8333 7.60831 13.8333 10.8333C13.8333 14.0583 11.225 16.6666 8 16.6666Z" fill="#9E9E9E"/>
</svg>
