<svg width="31" height="30" viewBox="0 0 31 30" fill="none" xmlns="http://www.w3.org/2000/svg">
<path d="M6 6H24C25.1046 6 26 6.89543 26 8V22C26 23.1046 25.1046 24 24 24H6C4.89543 24 4 23.1046 4 22V8C4 6.89543 4.89543 6 6 6Z" stroke="#9E9E9E" stroke-width="2"/>
<path d="M4 10L12.6057 14.694C14.0981 15.5081 15.9019 15.5081 17.3943 14.694L26 10" stroke="#9E9E9E" stroke-width="2"/>
<path d="M26 11C28.7614 11 31 8.76142 31 6C31 3.23858 28.7614 1 26 1C23.2386 1 21 3.23858 21 6C21 8.76142 23.2386 11 26 11Z" fill="#E24C3B"/>
</svg>
