<svg width="118" height="96" viewBox="0 0 118 96" fill="none" xmlns="http://www.w3.org/2000/svg">
    <path
        d="M0 94.5C11.6959 94.5 11.8076 89.4627 21.0526 88.6901C25.2337 88.3408 27.9625 88.6901 32.1637 88.6901C41.5 88.6901 38 80.5915 46.7836 80.5915C46.7836 80.5915 46.7836 80.5915 46.7836 80.5915C46.7836 80.5915 52.7886 80.5915 55.5 80.5915C65 80.5915 63 76.5423 71.345 76.5423C71.345 76.5423 71.345 76.5423 71.345 76.5423C71.345 76.5423 75.66 76.5423 78.3626 76.5423C87 76.5423 83.5 69.5 91.5 69.5H100"
        stroke="#E24C3B" stroke-width="2" />
    <rect x="96" y="58.5" width="22" height="22" rx="2.5" fill="#E24C3B" />
    <path
        d="M111.245 68.2117V73.4919C111.245 73.6687 111.094 73.8077 110.93 73.8077H106.243V70.2834C106.243 70.1318 106.117 70.0181 105.978 70.0181H104.31C104.159 70.0181 104.045 70.1444 104.045 70.2834V73.8077H103.085C102.908 73.8077 102.769 73.6687 102.769 73.4919V68.5C102.681 68.5126 102.58 68.5253 102.491 68.5253C102.213 68.5253 101.948 68.3587 101.696 68.2577V73.4919C101.696 74.2624 102.315 74.8814 103.085 74.8814H110.917C111.687 74.8814 112.306 74.2624 112.306 73.4919V68.0854C112.054 68.1865 111.788 68.237 111.511 68.237C111.422 68.237 111.334 68.2244 111.245 68.2117Z"
        fill="#FFFDFC" />
    <path
        d="M112.875 66.5064L112.18 64.7885L112.092 64.3463C112.003 63.8537 111.574 63.5 111.081 63.5H102.921C102.428 63.5 101.999 63.8537 101.91 64.3463L101.822 64.7885L101.127 66.5064C100.976 66.8727 100.95 67.2896 101.102 67.6559C101.329 68.237 101.885 68.5907 102.479 68.5907C102.921 68.5907 103.312 68.4012 103.59 68.0854C103.868 68.4012 104.272 68.5907 104.702 68.5907H104.778C105.195 68.5907 105.586 68.4138 105.851 68.1233C106.129 68.4265 106.521 68.5907 106.938 68.5907H107.051C107.456 68.5907 107.86 68.4138 108.138 68.1233C108.416 68.4138 108.795 68.5907 109.212 68.5907H109.287C109.717 68.5907 110.121 68.4012 110.399 68.0854C110.677 68.4012 111.068 68.5907 111.511 68.5907C112.104 68.5907 112.66 68.237 112.887 67.6559C113.052 67.2896 113.026 66.8727 112.875 66.5064Z"
        fill="#FFFDFC" />
    <path
        d="M109.692 71.8624C109.843 71.8624 109.957 71.736 109.957 71.5971V70.2834C109.957 70.1318 109.831 70.0181 109.692 70.0181H107.418C107.266 70.0181 107.153 70.1444 107.153 70.2834V71.5845C107.153 71.736 107.279 71.8497 107.418 71.8497H109.692V71.8624Z"
        fill="#FFFDFC" />
    <rect x="96" y="0.5" width="22" height="22" rx="2.11538" fill="#05A357" />
    <g clip-path="url(#clip0)">
        <path
            d="M106.975 11.4717C108.837 11.4717 110.346 9.9629 110.346 8.10122C110.346 6.23954 108.837 4.73071 106.975 4.73071C105.114 4.73071 103.605 6.23954 103.605 8.10122C103.605 9.9629 105.114 11.4717 106.975 11.4717ZM109.335 12.3144H108.895C108.31 12.5829 107.66 12.7357 106.975 12.7357C106.291 12.7357 105.643 12.5829 105.056 12.3144H104.616C102.662 12.3144 101.077 13.8996 101.077 15.8534V16.9488C101.077 17.6466 101.643 18.2128 102.341 18.2128H111.61C112.308 18.2128 112.874 17.6466 112.874 16.9488V15.8534C112.874 13.8996 111.288 12.3144 109.335 12.3144Z"
            fill="#FFFDFC" />
    </g>
    <path
        d="M0 94.5C11.6959 94.5 11.8076 77.7678 21.0526 75.2018C25.2337 74.0413 27.9765 76.3398 32.1637 75.2018C41.0494 72.787 37.9427 59.4039 41.4179 52.403C43.4923 48.2243 49.1904 49.0125 53.8012 48.3012V48.3012C59.7186 47.3883 61.7627 41.9053 65.306 38.1912C68.5298 34.8122 73.7634 35.6625 78.3626 34.8509V34.8509C89.3437 32.9131 80.4518 12.968 91.5 11.4591H100"
        stroke="#05A357" stroke-width="2" />
    <defs>
        <clipPath id="clip0">
            <rect width="11.7968" height="13.482" fill="white" transform="translate(101.077 4.73071)" />
        </clipPath>
    </defs>
</svg>