<svg width="30" height="30" viewBox="0 0 30 30" fill="none" xmlns="http://www.w3.org/2000/svg">
<rect width="30" height="30" rx="5" fill="#FFFDFC"/>
<path fill-rule="evenodd" clip-rule="evenodd" d="M8 14C10.2091 14 12 12.2091 12 10C12 7.79086 10.2091 6 8 6C5.79086 6 4 7.79086 4 10C4 12.2091 5.79086 14 8 14Z" fill="#FFFDFC"/>
<path d="M7 27C7 27.5523 7.44772 28 8 28C8.55229 28 9 27.5523 9 27H7ZM9 14C9 13.4477 8.55228 13 8 13C7.44772 13 7 13.4477 7 14H9ZM7 6C7 6.55228 7.44772 7 8 7C8.55228 7 9 6.55228 9 6H7ZM9 2C9 1.44772 8.55228 1 8 1C7.44772 1 7 1.44772 7 2H9ZM11 10C11 11.6569 9.65685 13 8 13V15C10.7614 15 13 12.7614 13 10H11ZM8 7C9.65685 7 11 8.34315 11 10H13C13 7.23858 10.7614 5 8 5V7ZM5 10C5 8.34315 6.34315 7 8 7V5C5.23858 5 3 7.23858 3 10H5ZM8 13C6.34315 13 5 11.6569 5 10H3C3 12.7614 5.23858 15 8 15V13ZM9 27L9 14H7L7 27H9ZM9 6V2H7V6H9Z" fill="#9E9E9E"/>
<path fill-rule="evenodd" clip-rule="evenodd" d="M21 15C18.7909 15 17 16.7909 17 19C17 21.2091 18.7909 23 21 23C23.2091 23 25 21.2091 25 19C25 16.7909 23.2091 15 21 15Z" fill="#FFFDFC"/>
<path d="M22 2C22 1.44772 21.5523 1 21 1C20.4477 1 20 1.44772 20 2L22 2ZM20 15C20 15.5523 20.4477 16 21 16C21.5523 16 22 15.5523 22 15L20 15ZM22 23C22 22.4477 21.5523 22 21 22C20.4477 22 20 22.4477 20 23L22 23ZM20 27C20 27.5523 20.4477 28 21 28C21.5523 28 22 27.5523 22 27L20 27ZM18 19C18 17.3431 19.3431 16 21 16L21 14C18.2386 14 16 16.2386 16 19L18 19ZM21 22C19.3431 22 18 20.6569 18 19L16 19C16 21.7614 18.2386 24 21 24L21 22ZM24 19C24 20.6569 22.6569 22 21 22L21 24C23.7614 24 26 21.7614 26 19L24 19ZM21 16C22.6569 16 24 17.3431 24 19L26 19C26 16.2386 23.7614 14 21 14L21 16ZM20 2L20 15L22 15L22 2L20 2ZM20 23L20 27L22 27L22 23L20 23Z" fill="#9E9E9E"/>
</svg>
