<svg width="118" height="96" viewBox="0 0 118 96" fill="none" xmlns="http://www.w3.org/2000/svg">
    <path
        d="M0 94.5C11.6959 94.5 12.755 76.566 22 74C26 72.8898 29.6608 73 34 73C39.6846 73 38.3184 62.9084 40.3086 55.5844C42.1398 48.8456 50.5984 49.366 57.5 48.3012V48.3012C63.1332 47.4321 63.6439 42.4213 65.7961 38.7378C68.1522 34.7055 73.7634 35.6625 78.3626 34.8509V34.8509C89.3437 32.9131 80.4518 12.968 91.5 11.4591H100"
        stroke="#05A357" stroke-width="2" />
    <path d="M0 94.5002C9 94.5 12.5 82.5 15 80.5" stroke="#DEDCDB" stroke-width="2.25" />
    <path
        d="M39.5 80.5C44 80.5 47 76.7519 50.5 76.7519C50.5 76.7519 56.7699 76.8455 59.5 76.7519C65.5 76.5462 64.5 73.7393 71.1158 73.7393C71.1158 73.7393 71.1158 73.7393 71.1158 73.7393C71.1158 73.7393 75.467 73.7393 78.1895 73.7393C88 73.7393 84.5 68.5 91.432 68.5H100"
        stroke="#E24C3B" stroke-width="2" />
    <rect x="96" y="0.5" width="22" height="22" rx="2.11538" fill="#05A357" />
    <g clip-path="url(#clip0)">
        <path
            d="M106.975 11.4717C108.837 11.4717 110.346 9.9629 110.346 8.10122C110.346 6.23954 108.837 4.73071 106.975 4.73071C105.114 4.73071 103.605 6.23954 103.605 8.10122C103.605 9.9629 105.114 11.4717 106.975 11.4717ZM109.335 12.3144H108.895C108.31 12.5829 107.66 12.7357 106.975 12.7357C106.291 12.7357 105.643 12.5829 105.056 12.3144H104.616C102.662 12.3144 101.077 13.8996 101.077 15.8534V16.9488C101.077 17.6466 101.643 18.2128 102.341 18.2128H111.61C112.308 18.2128 112.874 17.6466 112.874 16.9488V15.8534C112.874 13.8996 111.288 12.3144 109.335 12.3144Z"
            fill="#FFFDFC" />
    </g>
    <path d="M0 80.5H39.5" stroke="#E24C3B" stroke-width="2" />
    <rect x="96" y="57.5" width="22" height="22" rx="2.5" fill="#E24C3B" />
    <path
        d="M111.245 67.2117V72.4919C111.245 72.6687 111.094 72.8077 110.93 72.8077H106.243V69.2834C106.243 69.1318 106.117 69.0181 105.978 69.0181H104.31C104.159 69.0181 104.045 69.1444 104.045 69.2834V72.8077H103.085C102.908 72.8077 102.769 72.6687 102.769 72.4919V67.5C102.681 67.5126 102.58 67.5253 102.491 67.5253C102.213 67.5253 101.948 67.3587 101.696 67.2577V72.4919C101.696 73.2624 102.315 73.8814 103.085 73.8814H110.917C111.687 73.8814 112.306 73.2624 112.306 72.4919V67.0854C112.054 67.1865 111.788 67.237 111.511 67.237C111.422 67.237 111.334 67.2244 111.245 67.2117Z"
        fill="#FFFDFC" />
    <path
        d="M112.875 65.5064L112.18 63.7885L112.092 63.3463C112.003 62.8537 111.574 62.5 111.081 62.5H102.921C102.428 62.5 101.999 62.8537 101.91 63.3463L101.822 63.7885L101.127 65.5064C100.976 65.8727 100.95 66.2896 101.102 66.6559C101.329 67.237 101.885 67.5907 102.479 67.5907C102.921 67.5907 103.312 67.4012 103.59 67.0854C103.868 67.4012 104.272 67.5907 104.702 67.5907H104.778C105.195 67.5907 105.586 67.4138 105.851 67.1233C106.129 67.4265 106.521 67.5907 106.938 67.5907H107.051C107.456 67.5907 107.86 67.4138 108.138 67.1233C108.416 67.4138 108.795 67.5907 109.212 67.5907H109.287C109.717 67.5907 110.121 67.4012 110.399 67.0854C110.677 67.4012 111.068 67.5907 111.511 67.5907C112.104 67.5907 112.66 67.237 112.887 66.6559C113.052 66.2896 113.026 65.8727 112.875 65.5064Z"
        fill="#FFFDFC" />
    <path
        d="M109.692 70.8624C109.843 70.8624 109.957 70.736 109.957 70.5971V69.2834C109.957 69.1318 109.831 69.0181 109.692 69.0181H107.418C107.266 69.0181 107.153 69.1444 107.153 69.2834V70.5845C107.153 70.736 107.279 70.8497 107.418 70.8497H109.692V70.8624Z"
        fill="#FFFDFC" />
    <defs>
        <clipPath id="clip0">
            <rect width="11.7968" height="13.482" fill="white" transform="translate(101.077 4.73071)" />
        </clipPath>
    </defs>
</svg>