<svg width="118" height="96" viewBox="0 0 118 96" fill="none" xmlns="http://www.w3.org/2000/svg">
    <path
        d="M0 94.4999C11.6959 94.4999 11.8076 77.7677 21.0526 75.2017C25.2337 74.0412 27.9765 76.3396 32.1637 75.2017C41.0494 72.7869 37.9427 59.4038 41.4179 52.4029C43.4923 48.2242 49.1904 49.0124 53.8012 48.3011V48.3011C59.7186 47.3882 61.7627 41.9051 65.306 38.1911C68.5298 34.8121 73.7634 35.6624 78.3626 34.8508V34.8508C89.3437 32.913 80.4518 12.9678 91.5 11.459H100"
        stroke="#05A357" stroke-width="2" />
    <path
        d="M0 94.5C11.6959 94.5 11.8076 77.7678 21.0526 75.2017C25.2337 74.0412 27.9765 76.3397 32.1637 75.2017C38.5 73.4798 38.5 66.4999 39.5 62.4999"
        stroke="#DEDCDB" stroke-width="2.25" />
    <path d="M0 62.4999H96" stroke="#E24C3B" stroke-width="2" />
    <rect x="96" y="51.4999" width="22" height="22" rx="2.5" fill="#E24C3B" />
    <path
        d="M111.245 61.2116V66.4918C111.245 66.6686 111.094 66.8076 110.93 66.8076H106.243V63.2832C106.243 63.1317 106.117 63.018 105.978 63.018H104.31C104.159 63.018 104.045 63.1443 104.045 63.2832V66.8076H103.085C102.908 66.8076 102.769 66.6686 102.769 66.4918V61.4999C102.681 61.5125 102.58 61.5251 102.491 61.5251C102.213 61.5251 101.948 61.3586 101.696 61.2576V66.4918C101.696 67.2623 102.315 67.8813 103.085 67.8813H110.917C111.687 67.8813 112.306 67.2623 112.306 66.4918V61.0853C112.054 61.1863 111.788 61.2369 111.511 61.2369C111.422 61.2369 111.334 61.2242 111.245 61.2116Z"
        fill="#FFFDFC" />
    <path
        d="M112.875 59.5063L112.18 57.7883L112.092 57.3462C112.003 56.8536 111.574 56.4999 111.081 56.4999H102.921C102.428 56.4999 101.999 56.8536 101.91 57.3462L101.822 57.7883L101.127 59.5063C100.976 59.8726 100.95 60.2895 101.102 60.6558C101.329 61.2369 101.885 61.5906 102.479 61.5906C102.921 61.5906 103.312 61.4011 103.59 61.0853C103.868 61.4011 104.272 61.5906 104.702 61.5906H104.778C105.195 61.5906 105.586 61.4137 105.851 61.1232C106.129 61.4263 106.521 61.5906 106.938 61.5906H107.051C107.456 61.5906 107.86 61.4137 108.138 61.1232C108.416 61.4137 108.795 61.5906 109.212 61.5906H109.287C109.717 61.5906 110.121 61.4011 110.399 61.0853C110.677 61.4011 111.068 61.5906 111.511 61.5906C112.104 61.5906 112.66 61.2369 112.887 60.6558C113.052 60.2895 113.026 59.8726 112.875 59.5063Z"
        fill="#FFFDFC" />
    <path
        d="M109.692 64.8622C109.843 64.8622 109.957 64.7359 109.957 64.597V63.2832C109.957 63.1317 109.831 63.018 109.692 63.018H107.418C107.266 63.018 107.153 63.1443 107.153 63.2832V64.5843C107.153 64.7359 107.279 64.8496 107.418 64.8496H109.692V64.8622Z"
        fill="#FFFDFC" />
    <rect x="96" y="0.499878" width="22" height="22" rx="2.11538" fill="#05A357" />
    <g clip-path="url(#clip0)">
        <path
            d="M106.975 11.4716C108.837 11.4716 110.346 9.96278 110.346 8.1011C110.346 6.23942 108.837 4.73059 106.975 4.73059C105.114 4.73059 103.605 6.23942 103.605 8.1011C103.605 9.96278 105.114 11.4716 106.975 11.4716ZM109.335 12.3142H108.895C108.31 12.5828 107.66 12.7356 106.975 12.7356C106.291 12.7356 105.643 12.5828 105.056 12.3142H104.616C102.662 12.3142 101.077 13.8994 101.077 15.8533V16.9487C101.077 17.6465 101.643 18.2126 102.341 18.2126H111.61C112.308 18.2126 112.874 17.6465 112.874 16.9487V15.8533C112.874 13.8994 111.288 12.3142 109.335 12.3142Z"
            fill="#FFFDFC" />
    </g>
    <defs>
        <clipPath id="clip0">
            <rect width="11.7968" height="13.482" fill="white" transform="translate(101.077 4.73059)" />
        </clipPath>
    </defs>
</svg>