<svg width="25" height="22" viewBox="0 0 25 22" fill="none" xmlns="http://www.w3.org/2000/svg">
<path d="M9.5 22C9.77614 22 10 21.7761 10 21.5V15C10 14.7239 10.2239 14.5 10.5 14.5H14.5C14.7761 14.5 15 14.7239 15 15V21.5C15 21.7761 15.2239 22 15.5 22H20.75C21.0261 22 21.25 21.7761 21.25 21.5V12.5C21.25 12.2239 21.4739 12 21.75 12H23.697C24.1553 12 24.3721 11.4349 24.0315 11.1284L12.8345 1.05104C12.6443 0.879898 12.3557 0.879897 12.1655 1.05103L0.968498 11.1284C0.627889 11.4349 0.844737 12 1.30298 12H3.25C3.52614 12 3.75 12.2239 3.75 12.5V21.5C3.75 21.7761 3.97386 22 4.25 22H9.5Z" fill="#212121"/>
</svg>
