<svg width="14" height="14" viewBox="0 0 14 14" fill="none" xmlns="http://www.w3.org/2000/svg">
<path d="M4.66669 6.99999L7.00001 6.99998L7.00002 3.66667" stroke="#FFC700" stroke-width="1.5" stroke-linecap="round" stroke-linejoin="round"/>
<path d="M1 7C1 6.21207 1.15519 5.43185 1.45672 4.7039C1.75825 3.97595 2.20021 3.31451 2.75736 2.75736C3.31451 2.20021 3.97595 1.75825 4.7039 1.45672C5.43185 1.15519 6.21207 1 7 1C7.78793 1 8.56815 1.15519 9.2961 1.45672C10.0241 1.75825 10.6855 2.20021 11.2426 2.75736C11.7998 3.31451 12.2417 3.97595 12.5433 4.7039C12.8448 5.43185 13 6.21207 13 7C13 8.5913 12.3679 10.1174 11.2426 11.2426C10.1174 12.3679 8.5913 13 7 13C5.4087 13 3.88258 12.3679 2.75736 11.2426C1.63214 10.1174 1 8.5913 1 7V7Z" stroke="#FFC700" stroke-width="1.5" stroke-linecap="round"/>
</svg>
