<svg width="12" height="12" viewBox="0 0 12 12" fill="none" xmlns="http://www.w3.org/2000/svg">
<path d="M6.02338 6C7.68041 6 9.02338 4.65703 9.02338 3C9.02338 1.34297 7.68041 0 6.02338 0C4.36635 0 3.02338 1.34297 3.02338 3C3.02338 4.65703 4.36635 6 6.02338 6ZM8.12338 6.75H7.73197C7.21166 6.98906 6.63275 7.125 6.02338 7.125C5.414 7.125 4.83744 6.98906 4.31478 6.75H3.92338C2.18431 6.75 0.773376 8.16094 0.773376 9.9V10.875C0.773376 11.4961 1.27728 12 1.89838 12H10.1484C10.7695 12 11.2734 11.4961 11.2734 10.875V9.9C11.2734 8.16094 9.86244 6.75 8.12338 6.75Z" fill="#FFFDFC"/>
</svg>
