<svg width="23" height="23" viewBox="0 0 23 23" fill="none" xmlns="http://www.w3.org/2000/svg">
<path d="M15.875 14.5H14.8875L14.5375 14.1625C15.7625 12.7375 16.5 10.8875 16.5 8.875C16.5 4.3875 12.8625 0.75 8.375 0.75C3.8875 0.75 0.25 4.3875 0.25 8.875C0.25 13.3625 3.8875 17 8.375 17C10.3875 17 12.2375 16.2625 13.6625 15.0375L14 15.3875V16.375L20.25 22.6125L22.1125 20.75L15.875 14.5ZM8.375 14.5C5.2625 14.5 2.75 11.9875 2.75 8.875C2.75 5.7625 5.2625 3.25 8.375 3.25C11.4875 3.25 14 5.7625 14 8.875C14 11.9875 11.4875 14.5 8.375 14.5Z" fill="#DEDCDB"/>
</svg>
