<svg width="30" height="30" viewBox="0 0 30 30" fill="none" xmlns="http://www.w3.org/2000/svg">
<path fill-rule="evenodd" clip-rule="evenodd" d="M15.9209 22.6262L21.8514 9.17651C21.9177 9.0328 21.9384 8.87219 21.9106 8.71635C21.8829 8.56052 21.808 8.41695 21.696 8.30502C21.5841 8.19309 21.4405 8.11818 21.2847 8.09041C21.1288 8.06263 20.9682 8.08332 20.8245 8.14968L7.37343 14.0864C6.6213 14.4325 6.87225 15.5769 7.70298 15.5769H14.1339C14.2104 15.5769 14.2838 15.6073 14.3379 15.6613C14.392 15.7154 14.4224 15.7888 14.4224 15.8653V22.2974C14.4224 23.131 15.5755 23.3812 15.9209 22.6262Z" fill="#0088E0"/>
<path d="M15.2098 0.00139365C6.77416 -0.112538 -0.112543 6.77383 0.00139372 15.2091C0.113889 23.299 6.70133 29.8861 14.7916 29.9986C23.2287 30.1139 30.1139 23.2276 29.9986 14.7923C29.8875 6.701 23.3001 0.113883 15.2098 0.00139365ZM21.8513 9.17649L15.9209 22.6262C15.5754 23.3812 14.4224 23.1309 14.4224 22.2974V15.8653C14.4224 15.7888 14.392 15.7154 14.3379 15.6613C14.2838 15.6072 14.2104 15.5769 14.1339 15.5769H7.70296C6.87223 15.5769 6.62128 14.4325 7.37341 14.0864L20.8245 8.14966C20.9682 8.0833 21.1288 8.06261 21.2847 8.09039C21.4405 8.11817 21.5841 8.19307 21.696 8.305C21.8079 8.41693 21.8829 8.5605 21.9106 8.71634C21.9384 8.87218 21.9177 9.03278 21.8513 9.17649Z" fill="#ECF4FD"/>
</svg>
