<svg width="12" height="12" viewBox="0 0 12 12" fill="none" xmlns="http://www.w3.org/2000/svg">
<path d="M10.2453 4.71172V9.99189C10.2453 10.1687 10.0937 10.3077 9.92951 10.3077H5.24305V6.78337C5.24305 6.63178 5.11673 6.5181 4.97778 6.5181H3.31036C3.15878 6.5181 3.04509 6.64441 3.04509 6.78337V10.3077H2.08506C1.90821 10.3077 1.76926 10.1687 1.76926 9.99189V5C1.68084 5.01263 1.57978 5.02526 1.49136 5.02526C1.21345 5.02526 0.948184 4.85874 0.695544 4.75768V9.99189C0.695544 10.7624 1.31451 11.3814 2.08506 11.3814H9.91688C10.6874 11.3814 11.3064 10.7624 11.3064 9.99189V4.5854C11.0538 4.68646 10.7885 4.73699 10.5106 4.73699C10.4222 4.73699 10.3337 4.72436 10.2453 4.71172Z" fill="#E24C3B"/>
<path d="M11.8748 3.00641L11.1801 1.28846L11.0917 0.846342C11.0032 0.353695 10.5737 0 10.0811 0H1.92085C1.4282 0 0.998711 0.353695 0.910287 0.846342L0.821864 1.28846L0.127106 3.00641C-0.024478 3.37274 -0.049742 3.78959 0.101842 4.15592C0.329217 4.73699 0.885024 5.09068 1.47873 5.09068C1.92085 5.09068 2.31244 4.9012 2.59034 4.5854C2.86824 4.9012 3.27247 5.09068 3.70195 5.09068H3.77774C4.1946 5.09068 4.58619 4.91384 4.85146 4.6233C5.12936 4.92647 5.52096 5.09068 5.93781 5.09068H6.0515C6.45572 5.09068 6.85994 4.91384 7.13785 4.6233C7.41575 4.91384 7.79471 5.09068 8.21156 5.09068H8.28736C8.71684 5.09068 9.12107 4.9012 9.39897 4.5854C9.67687 4.9012 10.0685 5.09068 10.5106 5.09068C11.1043 5.09068 11.6601 4.73699 11.8875 4.15592C12.0517 3.78959 12.0264 3.37274 11.8748 3.00641Z" fill="#E24C3B"/>
<path d="M8.69158 8.36236C8.84316 8.36236 8.95685 8.23604 8.95685 8.09709V6.78337C8.95685 6.63178 8.83053 6.5181 8.69158 6.5181H6.41783C6.26624 6.5181 6.15255 6.64441 6.15255 6.78337V8.08446C6.15255 8.23604 6.27887 8.34973 6.41783 8.34973H8.69158V8.36236Z" fill="#E24C3B"/>
</svg>
