<svg width="13" height="13" viewBox="0 0 13 13" fill="none" xmlns="http://www.w3.org/2000/svg">
<path d="M5.89766 1.3538C6.08725 0.770303 6.91275 0.770302 7.10234 1.3538L8.04166 4.24475C8.12645 4.5057 8.36962 4.68237 8.644 4.68237H11.6837C12.2972 4.68237 12.5523 5.46746 12.056 5.82808L9.5968 7.61479C9.37482 7.77606 9.28194 8.06193 9.36673 8.32288L10.3061 11.2138C10.4956 11.7973 9.82781 12.2825 9.33145 11.9219L6.87226 10.1352C6.65029 9.97394 6.34971 9.97394 6.12774 10.1352L3.66855 11.9219C3.17219 12.2825 2.50436 11.7973 2.69395 11.2138L3.63327 8.32288C3.71806 8.06193 3.62518 7.77606 3.4032 7.61479L0.944012 5.82808C0.44766 5.46746 0.702751 4.68237 1.31628 4.68237H4.356C4.63038 4.68237 4.87355 4.5057 4.95834 4.24475L5.89766 1.3538Z" fill="#212121"/>
</svg>
